<svg xmlns="http://www.w3.org/2000/svg" viewBox="0 0 550 550"><defs><style>.cls-1{fill:#fff;}</style></defs><title>资源 2</title><g id="图层_2" data-name="图层 2"><g id="ycg"><g id="ycg-2" data-name="ycg"><rect id="bg" class="cls-1" width="550" height="550" rx="80" ry="80"/><g id="QRcode"><circle cx="155" cy="35" r="7.5"/><circle cx="170" cy="35" r="7.5"/><circle cx="185" cy="35" r="7.5"/><circle cx="230" cy="35" r="7.5"/><circle cx="245" cy="35" r="7.5"/><circle cx="275" cy="35" r="7.5"/><circle cx="380" cy="35" r="7.5"/><circle cx="395" cy="35" r="7.5"/><circle cx="170" cy="50" r="7.5"/><circle cx="200" cy="50" r="7.5"/><circle cx="230" cy="50" r="7.5"/><circle cx="245" cy="50" r="7.5"/><circle cx="305" cy="50" r="7.5"/><circle cx="320" cy="50" r="7.5"/><circle cx="395" cy="50" r="7.5"/><circle cx="200" cy="65" r="7.5"/><circle cx="245" cy="65" r="7.5"/><circle cx="260" cy="65" r="7.5"/><circle cx="275" cy="65" r="7.5"/><circle cx="290" cy="65" r="7.5"/><circle cx="305" cy="65" r="7.5"/><circle cx="320" cy="65" r="7.5"/><circle cx="335" cy="65" r="7.5"/><circle cx="350" cy="65" r="7.5"/><circle cx="395" cy="65" r="7.5"/><circle cx="155" cy="80" r="7.5"/><circle cx="185" cy="80" r="7.5"/><circle cx="260" cy="80" r="7.5"/><circle cx="275" cy="80" r="7.5"/><circle cx="290" cy="80" r="7.5"/><circle cx="320" cy="80" r="7.5"/><circle cx="350" cy="80" r="7.5"/><circle cx="365" cy="80" r="7.5"/><circle cx="155" cy="95" r="7.5"/><circle cx="200" cy="95" r="7.5"/><circle cx="215" cy="95" r="7.5"/><circle cx="230" cy="95" r="7.5"/><circle cx="275" cy="95" r="7.5"/><circle cx="320" cy="95" r="7.5"/><circle cx="350" cy="95" r="7.5"/><circle cx="365" cy="95" r="7.5"/><circle cx="155" cy="110" r="7.5"/><circle cx="200" cy="110" r="7.5"/><circle cx="215" cy="110" r="7.5"/><circle cx="230" cy="110" r="7.5"/><circle cx="260" cy="110" r="7.5"/><circle cx="290" cy="110" r="7.5"/><circle cx="305" cy="110" r="7.5"/><circle cx="335" cy="110" r="7.5"/><circle cx="350" cy="110" r="7.5"/><circle cx="365" cy="110" r="7.5"/><circle cx="380" cy="110" r="7.5"/><circle cx="395" cy="110" r="7.5"/><circle cx="155" cy="125" r="7.5"/><circle cx="185" cy="125" r="7.5"/><circle cx="215" cy="125" r="7.5"/><circle cx="245" cy="125" r="7.5"/><circle cx="275" cy="125" r="7.5"/><circle cx="305" cy="125" r="7.5"/><circle cx="335" cy="125" r="7.5"/><circle cx="365" cy="125" r="7.5"/><circle cx="395" cy="125" r="7.5"/><circle cx="155" cy="140" r="7.5"/><circle cx="170" cy="140" r="7.5"/><circle cx="200" cy="140" r="7.5"/><circle cx="215" cy="140" r="7.5"/><circle cx="290" cy="140" r="7.5"/><circle cx="320" cy="140" r="7.5"/><circle cx="335" cy="140" r="7.5"/><circle cx="350" cy="140" r="7.5"/><circle cx="365" cy="140" r="7.5"/><circle cx="395" cy="140" r="7.5"/><circle cx="35" cy="155" r="7.5"/><circle cx="95" cy="155" r="7.5"/><circle cx="125" cy="155" r="7.5"/><circle cx="140" cy="155" r="7.5"/><circle cx="155" cy="155" r="7.5"/><circle cx="170" cy="155" r="7.5"/><circle cx="185" cy="155" r="7.5"/><circle cx="200" cy="155" r="7.5"/><circle cx="215" cy="155" r="7.5"/><circle cx="230" cy="155" r="7.5"/><circle cx="260" cy="155" r="7.5"/><circle cx="275" cy="155" r="7.5"/><circle cx="290" cy="155" r="7.5"/><circle cx="305" cy="155" r="7.5"/><circle cx="335" cy="155" r="7.5"/><circle cx="350" cy="155" r="7.5"/><circle cx="365" cy="155" r="7.5"/><circle cx="380" cy="155" r="7.5"/><circle cx="395" cy="155" r="7.5"/><circle cx="410" cy="155" r="7.5"/><circle cx="425" cy="155" r="7.5"/><circle cx="440" cy="155" r="7.5"/><circle cx="455" cy="155" r="7.5"/><circle cx="35" cy="170" r="7.5"/><circle cx="80" cy="170" r="7.5"/><circle cx="95" cy="170" r="7.5"/><circle cx="140" cy="170" r="7.5"/><circle cx="155" cy="170" r="7.5"/><circle cx="200" cy="170" r="7.5"/><circle cx="215" cy="170" r="7.5"/><circle cx="245" cy="170" r="7.5"/><circle cx="275" cy="170" r="7.5"/><circle cx="290" cy="170" r="7.5"/><circle cx="305" cy="170" r="7.5"/><circle cx="335" cy="170" r="7.5"/><circle cx="350" cy="170" r="7.5"/><circle cx="365" cy="170" r="7.5"/><circle cx="380" cy="170" r="7.5"/><circle cx="440" cy="170" r="7.5"/><circle cx="35" cy="185" r="7.5"/><circle cx="50" cy="185" r="7.5"/><circle cx="65" cy="185" r="7.5"/><circle cx="110" cy="185" r="7.5"/><circle cx="125" cy="185" r="7.5"/><circle cx="140" cy="185" r="7.5"/><circle cx="185" cy="185" r="7.5"/><circle cx="200" cy="185" r="7.5"/><circle cx="230" cy="185" r="7.5"/><circle cx="245" cy="185" r="7.5"/><circle cx="260" cy="185" r="7.5"/><circle cx="305" cy="185" r="7.5"/><circle cx="335" cy="185" r="7.5"/><circle cx="380" cy="185" r="7.5"/><circle cx="395" cy="185" r="7.5"/><circle cx="410" cy="185" r="7.5"/><circle cx="425" cy="185" r="7.5"/><circle cx="35" cy="200" r="7.5"/><circle cx="50" cy="200" r="7.5"/><circle cx="80" cy="200" r="7.5"/><circle cx="95" cy="200" r="7.5"/><circle cx="110" cy="200" r="7.5"/><circle cx="170" cy="200" r="7.5"/><circle cx="185" cy="200" r="7.5"/><circle cx="200" cy="200" r="7.5"/><circle cx="335" cy="200" r="7.5"/><circle cx="365" cy="200" r="7.5"/><circle cx="380" cy="200" r="7.5"/><circle cx="410" cy="200" r="7.5"/><circle cx="35" cy="215" r="7.5"/><circle cx="95" cy="215" r="7.5"/><circle cx="125" cy="215" r="7.5"/><circle cx="140" cy="215" r="7.5"/><circle cx="155" cy="215" r="7.5"/><circle cx="170" cy="215" r="7.5"/><circle cx="365" cy="215" r="7.5"/><circle cx="380" cy="215" r="7.5"/><circle cx="395" cy="215" r="7.5"/><circle cx="410" cy="215" r="7.5"/><circle cx="425" cy="215" r="7.5"/><circle cx="455" cy="215" r="7.5"/><circle cx="35" cy="230" r="7.5"/><circle cx="50" cy="230" r="7.5"/><circle cx="80" cy="230" r="7.5"/><circle cx="140" cy="230" r="7.5"/><circle cx="170" cy="230" r="7.5"/><circle cx="395" cy="230" r="7.5"/><circle cx="35" cy="245" r="7.5"/><circle cx="50" cy="245" r="7.5"/><circle cx="110" cy="245" r="7.5"/><circle cx="125" cy="245" r="7.5"/><circle cx="140" cy="245" r="7.5"/><circle cx="155" cy="245" r="7.5"/><circle cx="185" cy="245" r="7.5"/><circle cx="365" cy="245" r="7.5"/><circle cx="380" cy="245" r="7.5"/><circle cx="395" cy="245" r="7.5"/><circle cx="410" cy="245" r="7.5"/><circle cx="50" cy="260" r="7.5"/><circle cx="80" cy="260" r="7.5"/><circle cx="95" cy="260" r="7.5"/><circle cx="185" cy="260" r="7.5"/><circle cx="395" cy="260" r="7.5"/><circle cx="410" cy="260" r="7.5"/><circle cx="425" cy="260" r="7.5"/><circle cx="440" cy="260" r="7.5"/><circle cx="455" cy="260" r="7.5"/><circle cx="35" cy="275" r="7.5"/><circle cx="50" cy="275" r="7.5"/><circle cx="110" cy="275" r="7.5"/><circle cx="125" cy="275" r="7.5"/><circle cx="185" cy="275" r="7.5"/><circle cx="365" cy="275" r="7.5"/><circle cx="395" cy="275" r="7.5"/><circle cx="425" cy="275" r="7.5"/><circle cx="455" cy="275" r="7.5"/><circle cx="35" cy="290" r="7.5"/><circle cx="65" cy="290" r="7.5"/><circle cx="95" cy="290" r="7.5"/><circle cx="110" cy="290" r="7.5"/><circle cx="140" cy="290" r="7.5"/><circle cx="155" cy="290" r="7.5"/><circle cx="170" cy="290" r="7.5"/><circle cx="185" cy="290" r="7.5"/><circle cx="365" cy="290" r="7.5"/><circle cx="380" cy="290" r="7.5"/><circle cx="410" cy="290" r="7.5"/><circle cx="50" cy="305" r="7.5"/><circle cx="65" cy="305" r="7.5"/><circle cx="80" cy="305" r="7.5"/><circle cx="125" cy="305" r="7.5"/><circle cx="140" cy="305" r="7.5"/><circle cx="155" cy="305" r="7.5"/><circle cx="185" cy="305" r="7.5"/><circle cx="365" cy="305" r="7.5"/><circle cx="380" cy="305" r="7.5"/><circle cx="425" cy="305" r="7.5"/><circle cx="65" cy="320" r="7.5"/><circle cx="110" cy="320" r="7.5"/><circle cx="140" cy="320" r="7.5"/><circle cx="170" cy="320" r="7.5"/><circle cx="380" cy="320" r="7.5"/><circle cx="410" cy="320" r="7.5"/><circle cx="65" cy="335" r="7.5"/><circle cx="80" cy="335" r="7.5"/><circle cx="125" cy="335" r="7.5"/><circle cx="140" cy="335" r="7.5"/><circle cx="170" cy="335" r="7.5"/><circle cx="200" cy="335" r="7.5"/><circle cx="380" cy="335" r="7.5"/><circle cx="395" cy="335" r="7.5"/><circle cx="425" cy="335" r="7.5"/><circle cx="440" cy="335" r="7.5"/><circle cx="35" cy="350" r="7.5"/><circle cx="65" cy="350" r="7.5"/><circle cx="95" cy="350" r="7.5"/><circle cx="110" cy="350" r="7.5"/><circle cx="140" cy="350" r="7.5"/><circle cx="185" cy="350" r="7.5"/><circle cx="215" cy="350" r="7.5"/><circle cx="365" cy="350" r="7.5"/><circle cx="440" cy="350" r="7.5"/><circle cx="80" cy="365" r="7.5"/><circle cx="125" cy="365" r="7.5"/><circle cx="140" cy="365" r="7.5"/><circle cx="170" cy="365" r="7.5"/><circle cx="200" cy="365" r="7.5"/><circle cx="215" cy="365" r="7.5"/><circle cx="275" cy="365" r="7.5"/><circle cx="290" cy="365" r="7.5"/><circle cx="320" cy="365" r="7.5"/><circle cx="350" cy="365" r="7.5"/><circle cx="365" cy="365" r="7.5"/><circle cx="380" cy="365" r="7.5"/><circle cx="410" cy="365" r="7.5"/><circle cx="440" cy="365" r="7.5"/><circle cx="155" cy="380" r="7.5"/><circle cx="170" cy="380" r="7.5"/><circle cx="200" cy="380" r="7.5"/><circle cx="215" cy="380" r="7.5"/><circle cx="245" cy="380" r="7.5"/><circle cx="290" cy="380" r="7.5"/><circle cx="305" cy="380" r="7.5"/><circle cx="320" cy="380" r="7.5"/><circle cx="335" cy="380" r="7.5"/><circle cx="350" cy="380" r="7.5"/><circle cx="410" cy="380" r="7.5"/><circle cx="440" cy="380" r="7.5"/><circle cx="455" cy="380" r="7.5"/><circle cx="35" cy="395" r="7.5"/><circle cx="50" cy="395" r="7.5"/><circle cx="65" cy="395" r="7.5"/><circle cx="110" cy="395" r="7.5"/><circle cx="125" cy="395" r="7.5"/><circle cx="185" cy="395" r="7.5"/><circle cx="200" cy="395" r="7.5"/><circle cx="245" cy="395" r="7.5"/><circle cx="260" cy="395" r="7.5"/><circle cx="335" cy="395" r="7.5"/><circle cx="350" cy="395" r="7.5"/><circle cx="395" cy="395" r="7.5"/><circle cx="410" cy="395" r="7.5"/><circle cx="425" cy="395" r="7.5"/><circle cx="440" cy="395" r="7.5"/><circle cx="455" cy="395" r="7.5"/><circle cx="155" cy="410" r="7.5"/><circle cx="185" cy="410" r="7.5"/><circle cx="215" cy="410" r="7.5"/><circle cx="230" cy="410" r="7.5"/><circle cx="275" cy="410" r="7.5"/><circle cx="290" cy="410" r="7.5"/><circle cx="305" cy="410" r="7.5"/><circle cx="350" cy="410" r="7.5"/><circle cx="380" cy="410" r="7.5"/><circle cx="395" cy="410" r="7.5"/><circle cx="455" cy="410" r="7.5"/><circle cx="155" cy="425" r="7.5"/><circle cx="185" cy="425" r="7.5"/><circle cx="215" cy="425" r="7.5"/><circle cx="230" cy="425" r="7.5"/><circle cx="245" cy="425" r="7.5"/><circle cx="260" cy="425" r="7.5"/><circle cx="275" cy="425" r="7.5"/><circle cx="305" cy="425" r="7.5"/><circle cx="335" cy="425" r="7.5"/><circle cx="395" cy="425" r="7.5"/><circle cx="425" cy="425" r="7.5"/><circle cx="455" cy="425" r="7.5"/><circle cx="170" cy="440" r="7.5"/><circle cx="185" cy="440" r="7.5"/><circle cx="230" cy="440" r="7.5"/><circle cx="245" cy="440" r="7.5"/><circle cx="260" cy="440" r="7.5"/><circle cx="275" cy="440" r="7.5"/><circle cx="320" cy="440" r="7.5"/><circle cx="365" cy="440" r="7.5"/><circle cx="395" cy="440" r="7.5"/><circle cx="455" cy="440" r="7.5"/><circle cx="155" cy="455" r="7.5"/><circle cx="170" cy="455" r="7.5"/><circle cx="185" cy="455" r="7.5"/><circle cx="200" cy="455" r="7.5"/><circle cx="230" cy="455" r="7.5"/><circle cx="245" cy="455" r="7.5"/><circle cx="275" cy="455" r="7.5"/><circle cx="320" cy="455" r="7.5"/><circle cx="365" cy="455" r="7.5"/><circle cx="395" cy="455" r="7.5"/><circle cx="410" cy="455" r="7.5"/><circle cx="425" cy="455" r="7.5"/><circle cx="440" cy="455" r="7.5"/><circle cx="455" cy="455" r="7.5"/><circle cx="470" cy="155" r="7.5"/><circle cx="515" cy="155" r="7.5"/><circle cx="470" cy="170" r="7.5"/><circle cx="485" cy="170" r="7.5"/><circle cx="470" cy="185" r="7.5"/><circle cx="500" cy="200" r="7.5"/><circle cx="470" cy="215" r="7.5"/><circle cx="500" cy="215" r="7.5"/><circle cx="515" cy="215" r="7.5"/><circle cx="485" cy="230" r="7.5"/><circle cx="500" cy="245" r="7.5"/><circle cx="470" cy="275" r="7.5"/><circle cx="485" cy="275" r="7.5"/><circle cx="500" cy="275" r="7.5"/><circle cx="470" cy="290" r="7.5"/><circle cx="485" cy="290" r="7.5"/><circle cx="470" cy="305" r="7.5"/><circle cx="500" cy="305" r="7.5"/><circle cx="470" cy="335" r="7.5"/><circle cx="485" cy="350" r="7.5"/><circle cx="500" cy="350" r="7.5"/><circle cx="470" cy="365" r="7.5"/><circle cx="485" cy="365" r="7.5"/><circle cx="500" cy="365" r="7.5"/><circle cx="500" cy="380" r="7.5"/><circle cx="515" cy="380" r="7.5"/><circle cx="470" cy="395" r="7.5"/><circle cx="500" cy="395" r="7.5"/><circle cx="485" cy="410" r="7.5"/><circle cx="500" cy="410" r="7.5"/><circle cx="515" cy="410" r="7.5"/><circle cx="470" cy="425" r="7.5"/><circle cx="500" cy="425" r="7.5"/><circle cx="470" cy="440" r="7.5"/><circle cx="500" cy="440" r="7.5"/><circle cx="470" cy="455" r="7.5"/><circle cx="515" cy="455" r="7.5"/><circle cx="170" cy="470" r="7.5"/><circle cx="185" cy="470" r="7.5"/><circle cx="230" cy="470" r="7.5"/><circle cx="305" cy="470" r="7.5"/><circle cx="320" cy="470" r="7.5"/><circle cx="335" cy="470" r="7.5"/><circle cx="350" cy="470" r="7.5"/><circle cx="380" cy="470" r="7.5"/><circle cx="395" cy="470" r="7.5"/><circle cx="425" cy="470" r="7.5"/><circle cx="455" cy="470" r="7.5"/><circle cx="185" cy="485" r="7.5"/><circle cx="200" cy="485" r="7.5"/><circle cx="215" cy="485" r="7.5"/><circle cx="245" cy="485" r="7.5"/><circle cx="260" cy="485" r="7.5"/><circle cx="290" cy="485" r="7.5"/><circle cx="305" cy="485" r="7.5"/><circle cx="335" cy="485" r="7.5"/><circle cx="380" cy="485" r="7.5"/><circle cx="395" cy="485" r="7.5"/><circle cx="425" cy="485" r="7.5"/><circle cx="440" cy="485" r="7.5"/><circle cx="455" cy="485" r="7.5"/><circle cx="215" cy="500" r="7.5"/><circle cx="230" cy="500" r="7.5"/><circle cx="245" cy="500" r="7.5"/><circle cx="260" cy="500" r="7.5"/><circle cx="275" cy="500" r="7.5"/><circle cx="290" cy="500" r="7.5"/><circle cx="305" cy="500" r="7.5"/><circle cx="350" cy="500" r="7.5"/><circle cx="365" cy="500" r="7.5"/><circle cx="380" cy="500" r="7.5"/><circle cx="395" cy="500" r="7.5"/><circle cx="425" cy="500" r="7.5"/><circle cx="440" cy="500" r="7.5"/><circle cx="155" cy="515" r="7.5"/><circle cx="170" cy="515" r="7.5"/><circle cx="200" cy="515" r="7.5"/><circle cx="215" cy="515" r="7.5"/><circle cx="230" cy="515" r="7.5"/><circle cx="275" cy="515" r="7.5"/><circle cx="320" cy="515" r="7.5"/><circle cx="335" cy="515" r="7.5"/><circle cx="350" cy="515" r="7.5"/><circle cx="365" cy="515" r="7.5"/><circle cx="380" cy="515" r="7.5"/><circle cx="395" cy="515" r="7.5"/><circle cx="410" cy="515" r="7.5"/><circle cx="425" cy="515" r="7.5"/><circle cx="455" cy="515" r="7.5"/><circle cx="485" cy="470" r="7.5"/><circle cx="500" cy="470" r="7.5"/><circle cx="470" cy="485" r="7.5"/><circle cx="485" cy="485" r="7.5"/><circle cx="515" cy="515" r="7.5"/><path d="M80,27.5A52.5,52.5,0,1,0,132.5,80,52.51,52.51,0,0,0,80,27.5Zm0,90A37.5,37.5,0,1,1,117.5,80,37.5,37.5,0,0,1,80,117.5Z"/><circle cx="80" cy="80" r="20"/><path d="M80,417.5A52.5,52.5,0,1,0,132.5,470,52.51,52.51,0,0,0,80,417.5Zm0,90A37.5,37.5,0,1,1,117.5,470,37.5,37.5,0,0,1,80,507.5Z"/><circle cx="80" cy="470" r="20"/><path d="M470,27.5A52.5,52.5,0,1,0,522.5,80,52.51,52.51,0,0,0,470,27.5Zm0,90A37.5,37.5,0,1,1,507.5,80,37.5,37.5,0,0,1,470,117.5Z"/><circle cx="470" cy="80" r="20"/></g><g id="原"><g id="bg-2" data-name="bg"><circle cx="275" cy="275" r="75"/><path class="cls-1" d="M275,207.5A67.5,67.5,0,1,1,207.5,275,67.5,67.5,0,0,1,275,207.5m0-15A82.5,82.5,0,1,0,357.5,275,82.59,82.59,0,0,0,275,192.5Z"/></g><g id="原-2" data-name="原"><g id="Group-3"><path id="Shape" class="cls-1" d="M303.8,237.79l-5,6.2H255.41l-10.52-4.39v24.81c0,15.5-.53,33.07-7.89,47.28l1.05.52c15.25-13.18,16-33.33,16-47.8V245.8h56.54c1.32,0,2.11-.51,2.37-1.29C309.32,241.41,303.8,237.79,303.8,237.79Z"/><path id="Shape-2" data-name="Shape" class="cls-1" d="M291.37,288.46l-.54.52c4.56,4.39,10.19,11.37,12.34,17.32C312.82,312.25,319.25,293.63,291.37,288.46Z"/><path id="Shape-3" data-name="Shape" class="cls-1" d="M271.83,291.57l-8.59-4.69a56.26,56.26,0,0,1-15.16,21.38l.51.78c8.84-3.39,16.67-9.13,21.47-15.12A13.54,13.54,0,0,0,271.83,291.57Z"/><path id="Shape-4" data-name="Shape" class="cls-1" d="M306.67,258.49l-12.07-6v4.69H278.07a37.81,37.81,0,0,0,6.82-6.26,16.77,16.77,0,0,0,2.1-2.86l-10.76-2.35c-.26,3.91-.52,8.34-1.05,11.21h-4.72L260.75,253v34.42l9.18-2.6v-2.35h7.87v18.78c0,.78-.26,1.3-1.57,1.3-1.57,0-9.45-.52-9.45-.52v1c3.94.52,5.78,1.57,6.83,2.87s1.31,3.39,1.57,6.26c10.5-.78,11.81-4.7,11.81-10.95V282.48h7.61v3.39l9.18-2.61V261.88Zm-36.74,22.16v-21.9H294.6v21.9Z"/><polygon id="Shape-5" data-name="Shape" class="cls-1" points="271.83 270.51 271.83 275.79 292.42 268.4 292.42 263.13 271.83 270.51"/></g></g></g><g id="dot"><circle cx="230" cy="200" r="7.5"/><circle cx="350" cy="320" r="7.5"/><circle cx="335" cy="335" r="7.5"/><circle cx="230" cy="350" r="7.5"/><circle cx="320" cy="350" r="7.5"/></g></g></g></g></svg>